<svg height="48" width="17" xmlns="http://www.w3.org/2000/svg"><g fill="none" fill-rule="evenodd"><path d="M0 48h17V0H0z"/><path d="M8.717 16.784c-.097 0-.193-.012-.253-.024a1.66 1.66 0 0 1-.036-.337c0-.963.493-1.913 1.023-2.515.674-.782 1.793-1.372 2.73-1.408.025.109.037.24.037.373 0 .95-.41 1.902-.986 2.587-.614.759-1.673 1.324-2.515 1.324m6.858 2.045c-.108.085-2.01 1.156-2.01 3.538 0 2.755 2.42 3.73 2.492 3.754-.012.06-.385 1.336-1.276 2.636-.794 1.143-1.624 2.286-2.888 2.286-1.263 0-1.588-.735-3.044-.735-1.42 0-1.925.759-3.08.759-1.156 0-1.962-1.06-2.888-2.36C1.81 27.18.944 24.81.944 22.56c0-3.61 2.346-5.523 4.656-5.523 1.228 0 2.25.807 3.02.807.735 0 1.878-.854 3.273-.854.53 0 2.43.047 3.682 1.84" fill="#fff"/></g></svg>